<svg width="32" height="32" viewBox="0 0 32 32" fill="none" xmlns="http://www.w3.org/2000/svg">
<path d="M16.0013 2.66675C8.63751 2.66675 2.66797 8.63629 2.66797 16.0001C2.66797 23.3639 8.63751 29.3334 16.0013 29.3334C23.3651 29.3334 29.3346 23.3639 29.3346 16.0001C29.3268 8.63958 23.3619 2.67462 16.0013 2.66675ZM16.9537 16.0001C16.9537 16.5261 16.5273 16.9525 16.0013 16.9525H8.38226C7.85626 16.9525 7.42986 16.5261 7.42986 16.0001C7.42986 15.4741 7.85626 15.0477 8.38226 15.0477H15.049V8.38104C15.049 7.85504 15.4754 7.42864 16.0014 7.42864C16.5274 7.42864 16.9537 7.85504 16.9537 8.38104V16.0001Z" fill="#EDA84D"/>
</svg>
