<svg width="32" height="32" viewBox="0 0 32 32" fill="none" xmlns="http://www.w3.org/2000/svg">
<path fill-rule="evenodd" clip-rule="evenodd" d="M16.0003 14.4C17.2733 14.4 18.4942 13.8943 19.3944 12.9942C20.2946 12.094 20.8003 10.8731 20.8003 9.60005C20.8003 8.32701 20.2946 7.10611 19.3944 6.20594C18.4942 5.30576 17.2733 4.80005 16.0003 4.80005C14.7273 4.80005 13.5064 5.30576 12.6062 6.20594C11.706 7.10611 11.2003 8.32701 11.2003 9.60005C11.2003 10.8731 11.706 12.094 12.6062 12.9942C13.5064 13.8943 14.7273 14.4 16.0003 14.4ZM4.80029 28.8C4.80029 27.3292 5.08999 25.8728 5.65284 24.514C6.2157 23.1551 7.04068 21.9205 8.0807 20.8805C9.12071 19.8404 10.3554 19.0154 11.7142 18.4526C13.0731 17.8897 14.5295 17.6 16.0003 17.6C17.4711 17.6 18.9275 17.8897 20.2863 18.4526C21.6452 19.0154 22.8799 19.8404 23.9199 20.8805C24.9599 21.9205 25.7849 23.1551 26.3477 24.514C26.9106 25.8728 27.2003 27.3292 27.2003 28.8H4.80029Z" fill="#EDA84D"/>
</svg>
