<svg width="32" height="32" viewBox="0 0 32 32" fill="none" xmlns="http://www.w3.org/2000/svg">
<path d="M25.6667 12.0001C25.6667 10.7744 25.4253 9.56074 24.9562 8.42837C24.4872 7.296 23.7997 6.2671 22.933 5.40042C22.0663 4.53374 21.0374 3.84625 19.905 3.37721C18.7727 2.90816 17.559 2.66675 16.3333 2.66675C15.1077 2.66675 13.894 2.90816 12.7616 3.37721C11.6292 3.84625 10.6004 4.53374 9.73367 5.40042C8.86699 6.2671 8.1795 7.296 7.71046 8.42837C7.24141 9.56074 7 10.7744 7 12.0001C7 13.8494 7.54667 15.5694 8.47333 17.0201H8.46267C11.6093 21.9467 16.3333 29.3334 16.3333 29.3334L24.204 17.0201H24.1947C25.1552 15.5219 25.6661 13.7797 25.6667 12.0001ZM16.3333 16.0001C15.2725 16.0001 14.2551 15.5787 13.5049 14.8285C12.7548 14.0784 12.3333 13.0609 12.3333 12.0001C12.3333 10.9392 12.7548 9.9218 13.5049 9.17165C14.2551 8.42151 15.2725 8.00008 16.3333 8.00008C17.3942 8.00008 18.4116 8.42151 19.1618 9.17165C19.9119 9.9218 20.3333 10.9392 20.3333 12.0001C20.3333 13.0609 19.9119 14.0784 19.1618 14.8285C18.4116 15.5787 17.3942 16.0001 16.3333 16.0001Z" fill="#EDA84D"/>
</svg>
