<svg width="32" height="32" viewBox="0 0 32 32" fill="none" xmlns="http://www.w3.org/2000/svg">
<path d="M23.5167 4H15.27C14.7481 4 14.2468 4.20779 13.8775 4.57709L3.14325 15.3094C2.37413 16.0785 2.37413 17.3252 3.14325 18.0953L11.3899 26.342C12.159 27.1111 13.4058 27.1111 14.1749 26.342L24.9092 15.6097C25.2785 15.2394 25.4862 14.7382 25.4862 14.2153V5.96959C25.4862 4.88139 24.6049 4 23.5167 4ZM20.0699 10.8936C19.2545 10.8936 18.5927 10.2318 18.5927 9.41636C18.5927 8.60096 19.2545 7.93917 20.0699 7.93917C20.8853 7.93917 21.5471 8.60096 21.5471 9.41636C21.5471 10.2318 20.8853 10.8936 20.0699 10.8936Z" fill="#EDA84D"/>
<path d="M27.3707 5.33337L27.3697 14.7655C27.3697 15.2326 27.1901 15.6815 26.8692 16.0118L16 27.2343L16.1668 27.4065C16.9332 28.1979 18.1756 28.1979 18.942 27.4065L28.7573 17.2743C29.1263 16.8943 29.3333 16.3786 29.3333 15.8416V7.35983C29.3333 6.24021 28.455 5.33337 27.3707 5.33337Z" fill="#EDA84D"/>
</svg>
