<svg width="121" height="46" viewBox="0 0 121 46" fill="none" xmlns="http://www.w3.org/2000/svg">
<g clip-path="url(#clip0)">
<path d="M38.7507 22.9999C42.4088 19.1641 46.5312 13.879 45.9156 8.6197C45.4221 4.40449 41.5882 0.566831 37.3688 0.0729423C32.1045 -0.542973 26.8169 3.5867 22.9886 7.23776C19.1702 3.59637 13.8782 -0.543696 8.60828 0.0729423C4.39298 0.566379 0.55541 4.40034 0.0615212 8.6197C-0.554665 13.8832 3.57564 19.1718 7.22634 22.9999C3.56824 26.8359 -0.554214 32.1209 0.0615212 37.3802C0.554958 41.5954 4.38892 45.4331 8.60828 45.927C13.8714 46.5431 19.1593 42.4138 22.9885 38.7622C26.5551 42.1635 31.3911 45.988 36.3101 45.988C38.9453 45.988 41.1897 44.8835 43.0308 43.0423C49.204 36.869 44.7548 29.2958 38.7507 22.9999ZM40.9871 40.9984C38.6879 43.2977 36.067 43.7034 32.7392 42.2755C31.1351 41.5872 28.4848 40.1587 24.006 35.7191C23.4427 35.1607 22.5345 35.1606 21.9712 35.7191C19.8262 37.8455 16.5872 40.8384 13.238 42.2755C9.91021 43.7033 7.28929 43.2977 4.99011 40.9984C2.69084 38.6992 2.2851 36.0784 3.71303 32.7505C4.40129 31.1465 5.82976 28.496 10.2694 24.0173C10.8279 23.454 10.8279 22.5459 10.2694 21.9825C8.14303 19.8375 5.15007 16.5985 3.71303 13.2493C2.28501 9.92145 2.69084 7.30062 4.99011 5.00144C7.28938 2.70217 9.91021 2.29652 13.238 3.72436C14.842 4.41262 17.4925 5.84109 21.9712 10.2808C22.5345 10.8392 23.4426 10.8392 24.006 10.2808C26.151 8.15445 29.39 5.1614 32.7392 3.72436C36.0671 2.29634 38.6879 2.70217 40.9871 5.00144C43.2863 7.30062 43.6921 9.92145 42.2641 13.2493C41.5759 14.8534 40.1474 17.5038 35.7077 21.9825C35.1493 22.5459 35.1493 23.454 35.7077 24.0173C37.8341 26.1623 40.827 29.4013 42.2641 32.7505C43.692 36.0785 43.2862 38.6992 40.9871 40.9984Z" fill="#595959"/>
<path d="M16.592 18.0469C17.8679 18.0469 18.5268 16.4928 17.6138 15.5799L10.928 8.89403C10.3636 8.3296 9.4486 8.3296 8.88426 8.89403C8.31983 9.45837 8.31983 10.3734 8.88426 10.9378L15.5702 17.6236C15.8523 17.9059 16.2221 18.0469 16.592 18.0469Z" fill="#595959"/>
<path d="M30.409 28.3767C29.8446 27.8123 28.9296 27.8123 28.3652 28.3767C27.8008 28.941 27.8008 29.8561 28.3652 30.4204L35.051 37.1064C35.3333 37.3886 35.7031 37.5297 36.073 37.5297C37.3489 37.5297 38.0078 35.9756 37.0948 35.0626L30.409 28.3767Z" fill="#595959"/>
<path d="M29.3877 18.0471C29.7576 18.0471 30.1274 17.906 30.4095 17.6237L37.0954 10.9379C37.6599 10.3735 37.6599 9.45849 37.0954 8.89415C36.5311 8.32972 35.6161 8.32972 35.0517 8.89415L28.3659 15.5801C27.4527 16.4931 28.1119 18.0471 29.3877 18.0471Z" fill="#595959"/>
<path d="M15.5702 28.3767L8.88426 35.0625C8.31983 35.627 8.31983 36.5419 8.88426 37.1063C9.44851 37.6706 10.3636 37.6707 10.928 37.1063L17.6138 30.4204C18.1783 29.856 18.1783 28.941 17.6138 28.3766C17.0496 27.8123 16.1345 27.8123 15.5702 28.3767Z" fill="#595959"/>
<path d="M22.9892 17.5779C19.9993 17.5779 17.5669 20.0103 17.5669 23.0002C17.5669 25.9901 19.9993 28.4225 22.9892 28.4225C25.9791 28.4225 28.4115 25.9901 28.4115 23.0002C28.4115 20.0103 25.979 17.5779 22.9892 17.5779ZM22.9892 25.5321C21.5931 25.5321 20.4572 24.3963 20.4572 23.0002C20.4572 21.604 21.5931 20.4682 22.9892 20.4682C24.3853 20.4682 25.5211 21.604 25.5211 23.0002C25.5211 24.3963 24.3852 25.5321 22.9892 25.5321Z" fill="#595959"/>
</g>
<path d="M63.568 29.192C65.504 29.192 66.848 28.216 67.6 26.6L66.144 25.72C65.744 26.808 64.896 27.576 63.568 27.576C61.856 27.576 60.8 26.328 60.8 24.264V22.568C60.8 20.504 61.856 19.256 63.568 19.256C64.864 19.256 65.648 19.944 66.032 21L67.552 20.168C66.8 18.504 65.504 17.64 63.568 17.64C60.656 17.64 58.88 19.672 58.88 23.416C58.88 27.16 60.656 29.192 63.568 29.192ZM69.5166 29H71.1486L75.4366 22.408L76.5566 20.344H76.6046L76.4286 22.648V29H78.1886V17.832H76.5566L72.2686 24.424L71.1486 26.488H71.1006L71.2766 24.184V17.832H69.5166V29ZM82.7465 29V24.552H85.7385C87.7865 24.552 88.9865 23.224 88.9865 21.192C88.9865 19.16 87.7865 17.832 85.7385 17.832H80.9385V29H82.7465ZM82.7465 19.416H85.6265C86.5385 19.416 87.0825 19.912 87.0825 20.808V21.576C87.0825 22.472 86.5385 22.968 85.6265 22.968H82.7465V19.416ZM98.1218 29V27.4H92.7778V24.136H97.6258V22.536H92.7778V19.432H98.1218V17.832H90.9698V29H98.1218ZM107.318 29H109.126V17.832H107.318V22.536H102.262V17.832H100.454V29H102.262V24.136H107.318V29ZM111.876 29H116.964C119.012 29 120.212 27.672 120.212 25.56C120.212 23.448 119.012 22.12 116.964 22.12H113.684V17.832H111.876V29ZM113.684 27.416V23.704H116.852C117.764 23.704 118.308 24.2 118.308 25.176V25.944C118.308 26.92 117.764 27.416 116.852 27.416H113.684Z" fill="#595959"/>
<defs>
<clipPath id="clip0">
<rect width="46" height="46" fill="white"/>
</clipPath>
</defs>
</svg>
