<svg width="12" height="18" viewBox="0 0 12 18" fill="none" xmlns="http://www.w3.org/2000/svg">
<path d="M1.98734 0H10.0123C10.6808 0 11.228 0.546686 11.228 1.21577V16.7837C11.228 17.4528 10.6808 18 10.0123 18H1.98734C1.31877 18 0.771572 17.4538 0.771572 16.7842V1.21577C0.771572 0.546686 1.31877 0 1.98734 0ZM7.28346 0.876343H4.71614C4.63489 0.876343 4.56906 0.942172 4.56906 1.02394C4.56906 1.1052 4.63489 1.17103 4.71614 1.17103H7.28346C7.36471 1.17103 7.43054 1.1052 7.43054 1.02394C7.43054 0.942172 7.36471 0.876343 7.28346 0.876343ZM5.9998 17.3921C6.33563 17.3921 6.60768 17.1201 6.60768 16.7837C6.60768 16.4474 6.33563 16.1758 5.9998 16.1758C5.66397 16.1758 5.39191 16.4474 5.39191 16.7837C5.39191 17.1201 5.66397 17.3921 5.9998 17.3921ZM1.61757 15.75H10.382V1.92806H1.61757V15.75Z" fill="#202020"/>
</svg>
