<svg width="12" height="18" viewBox="0 0 12 18" fill="none" xmlns="http://www.w3.org/2000/svg">
<mask id="path-1-inside-1" fill="white">
<path fill-rule="evenodd" clip-rule="evenodd" d="M1 0C0.447715 0 0 0.447715 0 1V16.5382C0 17.0905 0.447715 17.5382 1 17.5382H1.2335L6 14L10.7665 17.5382H11C11.5523 17.5382 12 17.0905 12 16.5382V1C12 0.447715 11.5523 0 11 0H1Z"/>
</mask>
<path d="M1.2335 17.5382V18.5382H1.56409L1.82954 18.3412L1.2335 17.5382ZM6 14L6.59604 13.197L6 12.7546L5.40396 13.197L6 14ZM10.7665 17.5382L10.1705 18.3412L10.4359 18.5382H10.7665V17.5382ZM1 1V1V-1C-0.104569 -1 -1 -0.10457 -1 1H1ZM1 16.5382V1H-1V16.5382H1ZM1 16.5382H1H-1C-1 17.6428 -0.10457 18.5382 1 18.5382V16.5382ZM1.2335 16.5382H1V18.5382H1.2335V16.5382ZM1.82954 18.3412L6.59604 14.803L5.40396 13.197L0.637459 16.7353L1.82954 18.3412ZM5.40396 14.803L10.1705 18.3412L11.3625 16.7353L6.59604 13.197L5.40396 14.803ZM11 16.5382H10.7665V18.5382H11V16.5382ZM11 16.5382V18.5382C12.1046 18.5382 13 17.6428 13 16.5382H11ZM11 1V16.5382H13V1H11ZM11 1H13C13 -0.104569 12.1046 -1 11 -1V1ZM1 1H11V-1H1V1Z" fill="white" mask="url(#path-1-inside-1)"/>
</svg>
