<svg width="21" height="15" viewBox="0 0 21 15" fill="none" xmlns="http://www.w3.org/2000/svg">
<path d="M3.84733 15C2.52926 15 1.54962 14.6679 0.908397 14.0037C0.302799 13.3395 0 12.4908 0 11.4576V10.5166C0 9.631 0.124682 8.70849 0.374046 7.74908C0.659033 6.78967 1.03308 5.84871 1.49618 4.9262C1.95929 4.00369 2.51145 3.11808 3.15267 2.26937C3.79389 1.42066 4.50636 0.664205 5.29008 0H9.40458C8.30025 1.14391 7.37405 2.26937 6.62595 3.37638C5.91349 4.44649 5.37914 5.64576 5.0229 6.97417C5.94911 7.15867 6.62595 7.58303 7.05344 8.24723C7.48092 8.87454 7.69466 9.61255 7.69466 10.4613V11.4576C7.69466 12.4908 7.37405 13.3395 6.73282 14.0037C6.12723 14.6679 5.16539 15 3.84733 15ZM15.4427 15C14.1247 15 13.145 14.6679 12.5038 14.0037C11.8982 13.3395 11.5954 12.4908 11.5954 11.4576V10.5166C11.5954 9.631 11.7201 8.70849 11.9695 7.74908C12.2545 6.78967 12.6285 5.84871 13.0916 4.9262C13.5547 4.00369 14.1069 3.11808 14.7481 2.26937C15.3893 1.42066 16.1018 0.664205 16.8855 0H21C19.8957 1.14391 18.9695 2.26937 18.2214 3.37638C17.5089 4.44649 16.9746 5.64576 16.6183 6.97417C17.5445 7.15867 18.2214 7.58303 18.6489 8.24723C19.0763 8.87454 19.2901 9.61255 19.2901 10.4613V11.4576C19.2901 12.4908 18.9695 13.3395 18.3282 14.0037C17.7226 14.6679 16.7608 15 15.4427 15Z" fill="#4E4E4E"/>
</svg>
